<?xml version="1.0" encoding="UTF-8"?>
<svg id="Layer_1" data-name="Layer 1" xmlns="http://www.w3.org/2000/svg" viewBox="0 0 426.2 426.2">
  <defs>
    <style>
      .cls-1 {
        fill: #58bea8;
      }

      .cls-2 {
        fill: #5e889a;
      }

      .cls-3 {
        fill: #333587;
      }

      .cls-4 {
        fill: #4d6790;
      }

      .cls-5 {
        fill: #6da1a1;
      }
    </style>
  </defs>
  <path class="cls-1" d="M340.66,98.09l-10.79,35.48h-14.1l-33.76,110.99-10.73,35.25-4.06,13.35-5.14,16.89c-3.27,10.73-13.17,18.07-24.39,18.07h-18.22l10.64-34.96,4.08-13.35,10.72-35.25,33.78-110.99,10.79-35.48h51.19Z"/>
  <polygon class="cls-5" points="230.53 244.55 219.82 279.8 215.74 293.15 205.1 328.11 173.51 328.11 184.15 293.15 188.21 279.8 198.94 244.55 230.53 244.55"/>
  <polygon class="cls-2" points="184.19 244.55 173.48 279.8 169.4 293.15 158.76 328.11 133.09 328.11 143.73 293.15 147.79 279.8 158.53 244.55 184.19 244.55"/>
  <polygon class="cls-4" points="144.03 244.55 133.31 279.8 129.23 293.15 118.59 328.11 98.31 328.11 108.94 293.15 113 279.8 123.74 244.55 144.03 244.55"/>
  <path class="cls-3" d="M85.54,279.65l6.41-21.07c2.56-8.42,10.32-14.17,19.13-14.17h0l-10.74,35.25"/>
</svg>